<svg width="226" height="60" viewBox="0 0 226 60" fill="none" xmlns="http://www.w3.org/2000/svg">
<path d="M24 46H42" stroke="#FDBAA3" stroke-width="4" stroke-linecap="round" stroke-linejoin="round"/>
<path d="M33 13C33.7956 12.2043 34.8748 11.7573 36 11.7573C36.5572 11.7573 37.1088 11.8671 37.6236 12.0803C38.1383 12.2935 38.606 12.606 39 13C39.394 13.3939 39.7065 13.8616 39.9197 14.3764C40.1329 14.8911 40.2426 15.4428 40.2426 16C40.2426 16.5571 40.1329 17.1088 39.9197 17.6236C39.7065 18.1383 39.394 18.606 39 19L14 44L6 46L8 38L33 13Z" stroke="#3C3D43" stroke-width="4" stroke-linecap="round" stroke-linejoin="round"/>
<path d="M78.52 18.48C78.52 18.3467 78.56 18.24 78.64 18.16C78.7467 18.0533 78.8667 18 79 18H83.68C83.8133 18 83.92 18.0533 84 18.16C84.1067 18.24 84.16 18.3467 84.16 18.48V45.52C84.16 45.6533 84.1067 45.7733 84 45.88C83.92 45.96 83.8133 46 83.68 46H79.16C78.8933 46 78.7067 45.8933 78.6 45.68L68.24 28.56C68.1867 28.48 68.1333 28.4533 68.08 28.48C68.0267 28.48 68 28.5333 68 28.64L68.08 45.52C68.08 45.6533 68.0267 45.7733 67.92 45.88C67.84 45.96 67.7333 46 67.6 46H62.92C62.7867 46 62.6667 45.96 62.56 45.88C62.48 45.7733 62.44 45.6533 62.44 45.52V18.48C62.44 18.3467 62.48 18.24 62.56 18.16C62.6667 18.0533 62.7867 18 62.92 18H67.44C67.7067 18 67.8933 18.1067 68 18.32L78.32 35.36C78.3733 35.44 78.4267 35.48 78.48 35.48C78.5333 35.4533 78.56 35.3867 78.56 35.28L78.52 18.48ZM99.0016 46.44C96.9216 46.44 95.0816 46.0133 93.4816 45.16C91.9082 44.3067 90.6816 43.12 89.8016 41.6C88.9216 40.0533 88.4816 38.28 88.4816 36.28V27.72C88.4816 25.7467 88.9216 24 89.8016 22.48C90.6816 20.96 91.9082 19.7867 93.4816 18.96C95.0816 18.1067 96.9216 17.68 99.0016 17.68C101.108 17.68 102.948 18.1067 104.522 18.96C106.122 19.7867 107.362 20.96 108.242 22.48C109.122 24 109.562 25.7467 109.562 27.72V36.28C109.562 38.28 109.122 40.0533 108.242 41.6C107.362 43.1467 106.122 44.3467 104.522 45.2C102.948 46.0267 101.108 46.44 99.0016 46.44ZM99.0016 41.6C100.468 41.6 101.655 41.1333 102.562 40.2C103.468 39.2667 103.922 38.0267 103.922 36.48V27.68C103.922 26.1333 103.468 24.8933 102.562 23.96C101.682 23 100.495 22.52 99.0016 22.52C97.5349 22.52 96.3482 23 95.4416 23.96C94.5616 24.8933 94.1216 26.1333 94.1216 27.68V36.48C94.1216 38.0267 94.5616 39.2667 95.4416 40.2C96.3482 41.1333 97.5349 41.6 99.0016 41.6ZM132.893 18C133.026 18 133.133 18.0533 133.213 18.16C133.319 18.24 133.373 18.3467 133.373 18.48V22.4C133.373 22.5333 133.319 22.6533 133.213 22.76C133.133 22.84 133.026 22.88 132.893 22.88H125.733C125.599 22.88 125.533 22.9467 125.533 23.08V45.52C125.533 45.6533 125.479 45.7733 125.373 45.88C125.293 45.96 125.186 46 125.053 46H120.373C120.239 46 120.119 45.96 120.013 45.88C119.933 45.7733 119.893 45.6533 119.893 45.52V23.08C119.893 22.9467 119.826 22.88 119.693 22.88H112.733C112.599 22.88 112.479 22.84 112.373 22.76C112.293 22.6533 112.253 22.5333 112.253 22.4V18.48C112.253 18.3467 112.293 18.24 112.373 18.16C112.479 18.0533 112.599 18 112.733 18H132.893ZM156.411 22.36C156.411 22.4933 156.358 22.6133 156.251 22.72C156.171 22.8 156.065 22.84 155.931 22.84H142.811C142.678 22.84 142.611 22.9067 142.611 23.04V29.24C142.611 29.3733 142.678 29.44 142.811 29.44H151.411C151.545 29.44 151.651 29.4933 151.731 29.6C151.838 29.68 151.891 29.7867 151.891 29.92V33.8C151.891 33.9333 151.838 34.0533 151.731 34.16C151.651 34.24 151.545 34.28 151.411 34.28H142.811C142.678 34.28 142.611 34.3467 142.611 34.48V40.96C142.611 41.0933 142.678 41.16 142.811 41.16H155.931C156.065 41.16 156.171 41.2133 156.251 41.32C156.358 41.4 156.411 41.5067 156.411 41.64V45.52C156.411 45.6533 156.358 45.7733 156.251 45.88C156.171 45.96 156.065 46 155.931 46H137.451C137.318 46 137.198 45.96 137.091 45.88C137.011 45.7733 136.971 45.6533 136.971 45.52V18.48C136.971 18.3467 137.011 18.24 137.091 18.16C137.198 18.0533 137.318 18 137.451 18H155.931C156.065 18 156.171 18.0533 156.251 18.16C156.358 18.24 156.411 18.3467 156.411 18.48V22.36ZM193.392 25.48C195.125 25.48 196.472 25.9733 197.432 26.96C198.419 27.92 198.912 29.2667 198.912 31C198.912 31.2133 198.885 31.6133 198.832 32.2L197.192 45.6C197.139 45.8667 196.992 46 196.752 46H194.832C194.592 46 194.472 45.8667 194.472 45.6L196.072 32.76C196.099 32.5733 196.112 32.3067 196.112 31.96C196.112 30.7333 195.765 29.76 195.072 29.04C194.379 28.32 193.432 27.96 192.232 27.96C190.845 27.96 189.685 28.3867 188.752 29.24C187.819 30.0933 187.259 31.24 187.072 32.68L185.472 45.6C185.472 45.7067 185.432 45.8 185.352 45.88C185.272 45.96 185.165 46 185.032 46H183.072C182.832 46 182.712 45.8667 182.712 45.6L184.312 32.76C184.339 32.5733 184.352 32.2933 184.352 31.92C184.352 30.6933 184.005 29.7333 183.312 29.04C182.619 28.32 181.672 27.96 180.472 27.96C179.112 27.96 177.965 28.3867 177.032 29.24C176.125 30.0933 175.579 31.24 175.392 32.68L173.792 45.6C173.792 45.7067 173.752 45.8 173.672 45.88C173.592 45.96 173.485 46 173.352 46H171.392C171.152 46 171.032 45.8667 171.032 45.6L173.432 26.16C173.485 25.8933 173.632 25.76 173.872 25.76H175.832C175.965 25.76 176.059 25.8 176.112 25.88C176.192 25.96 176.219 26.0533 176.192 26.16L175.992 27.76C175.992 27.8133 176.005 27.8533 176.032 27.88C176.085 27.88 176.139 27.8533 176.192 27.8C176.859 27.0267 177.659 26.4533 178.592 26.08C179.525 25.68 180.539 25.48 181.632 25.48C182.965 25.48 184.072 25.76 184.952 26.32C185.859 26.88 186.499 27.6933 186.872 28.76C186.872 28.8133 186.885 28.84 186.912 28.84C186.965 28.84 187.005 28.8133 187.032 28.76C187.725 27.6667 188.632 26.8533 189.752 26.32C190.872 25.76 192.085 25.48 193.392 25.48ZM219.509 32.48C219.509 33.4933 219.389 34.8533 219.149 36.56C219.149 36.6667 219.109 36.76 219.029 36.84C218.949 36.92 218.842 36.96 218.709 36.96H206.189C206.082 36.96 206.029 37.0133 206.029 37.12C205.922 38.2933 205.869 39.04 205.869 39.36C205.869 40.72 206.295 41.8133 207.149 42.64C208.029 43.44 209.255 43.84 210.829 43.84C211.949 43.84 212.935 43.5867 213.789 43.08C214.669 42.5733 215.402 41.8533 215.989 40.92C216.202 40.68 216.389 40.6267 216.549 40.76L217.949 41.68C218.162 41.8133 218.189 42 218.029 42.24C217.229 43.52 216.135 44.5333 214.749 45.28C213.389 46 211.855 46.36 210.149 46.36C208.309 46.3333 206.829 45.88 205.709 45C204.589 44.12 203.842 42.8933 203.469 41.32C203.309 40.6267 203.229 39.8533 203.229 39C203.229 38.0667 203.309 37 203.469 35.8C203.602 34.6533 203.735 33.7333 203.869 33.04C204.002 32.3467 204.175 31.72 204.389 31.16C205.029 29.4267 206.082 28.04 207.549 27C209.015 25.96 210.695 25.44 212.589 25.44C214.935 25.44 216.669 26.0533 217.789 27.28C218.909 28.5067 219.482 30.24 219.509 32.48ZM212.269 27.92C211.015 27.92 209.922 28.2667 208.989 28.96C208.082 29.6267 207.415 30.5333 206.989 31.68C206.802 32.2133 206.589 33.12 206.349 34.4C206.349 34.5067 206.402 34.56 206.509 34.56H216.549C216.655 34.56 216.709 34.5067 216.709 34.4C216.762 33.3333 216.789 32.6533 216.789 32.36C216.789 31.0267 216.389 29.96 215.589 29.16C214.789 28.3333 213.682 27.92 212.269 27.92Z" fill="#3C3D43"/>
<path d="M163.091 46.16C162.184 46.16 161.424 45.8667 160.811 45.28C160.224 44.6667 159.931 43.9067 159.931 43C159.931 42.0667 160.224 41.3067 160.811 40.72C161.397 40.1333 162.157 39.84 163.091 39.84C164.024 39.84 164.784 40.1333 165.371 40.72C165.957 41.3067 166.251 42.0667 166.251 43C166.251 43.9067 165.944 44.6667 165.331 45.28C164.744 45.8667 163.997 46.16 163.091 46.16Z" fill="#FDBAA3"/>
</svg>
